<svg id="Capa_1" enable-background="new 0 0 503.939 503.939" height="512" viewBox="0 0 503.939 503.939" width="512" xmlns="http://www.w3.org/2000/svg"><g><path d="m490.519 286.048c-10.542-6.105-23.373-4.4-31.93 4.251-.646.655-1.291 1.3-1.93 1.93-32.707 32.052-75.728 49.67-121.235 49.67-.305 0-.612-.001-.918-.002-45.843-.238-89.043-18.324-121.644-50.925-32.734-32.733-50.762-76.252-50.762-122.54s18.028-89.803 50.761-122.532c.042-.042.104-.106.145-.149l.385-.381c8.718-8.649 10.451-21.564 4.315-32.139-6.146-10.593-18.241-15.507-30.098-12.223-42.358 11.723-81.264 34.437-112.513 65.685-34.91 34.91-58.841 78.757-69.205 126.799-10.093 46.782-6.958 95.287 9.063 140.27 1.391 3.902 5.68 5.938 9.582 4.549 3.902-1.39 5.938-5.68 4.549-9.582-15.085-42.352-18.035-88.022-8.532-132.074 9.755-45.217 32.283-86.489 65.15-119.356 29.419-29.42 66.041-50.802 105.907-61.835 6.389-1.768 10.965 1.577 13.123 5.296 2.148 3.703 2.776 9.316-1.935 13.99l-.133.131c-.158.155-.316.312-.471.473-35.53 35.555-55.094 82.812-55.094 133.079 0 50.294 19.588 97.58 55.154 133.146 35.413 35.414 82.354 55.059 132.173 55.318.335.002.663.003.998.003 49.454-.001 96.205-19.141 131.747-53.973.705-.694 1.399-1.389 2.088-2.087 4.528-4.579 10.068-3.939 13.742-1.812 3.756 2.175 7.144 6.763 5.387 13.118-11.143 40.291-32.83 77.231-62.719 106.83-45.577 45.138-105.747 69.962-169.525 69.962-.293 0-.593 0-.887-.001-64.104-.231-124.451-25.511-169.926-71.184-18.331-18.406-33.438-39.395-44.903-62.385-1.848-3.707-6.35-5.214-10.06-3.364-3.706 1.849-5.213 6.352-3.364 10.059 12.184 24.43 28.232 46.729 47.698 66.275 48.296 48.505 112.398 75.354 180.501 75.6.315.001.627.001.942.001 67.753 0 131.675-26.367 180.078-74.304 31.745-31.437 54.782-70.681 66.621-113.491 3.275-11.837-1.679-23.931-12.325-30.096z"/><path d="m278.336 170.039c2.448 2.385 3.565 5.831 2.989 9.21l-8.139 47.469c-1.647 9.602 2.224 19.124 10.104 24.85 7.878 5.724 18.126 6.468 26.748 1.937l42.642-22.42c3.029-1.594 6.647-1.593 9.679 0l42.641 22.421c3.748 1.97 7.804 2.942 11.839 2.942 5.245 0 10.456-1.645 14.908-4.88 7.88-5.726 11.751-15.248 10.104-24.85l-8.139-47.462c-.577-3.386.54-6.832 2.991-9.219l34.489-33.62c6.979-6.802 9.444-16.784 6.432-26.05-3.011-9.263-10.869-15.885-20.507-17.283l-47.679-6.931c-3.381-.487-6.307-2.614-7.824-5.686l-2.971-6.02c-1.833-3.714-6.328-5.239-10.045-3.407-3.714 1.833-5.239 6.33-3.406 10.044l2.973 6.024c3.709 7.506 10.862 12.698 19.124 13.889l47.673 6.93c4.007.581 7.146 3.226 8.397 7.075 1.252 3.853.267 7.842-2.637 10.672l-34.488 33.618c-5.983 5.828-8.716 14.232-7.309 22.49l8.141 47.47c.685 3.993-.862 7.799-4.139 10.179-3.274 2.38-7.368 2.676-10.949.795l-42.639-22.419c-7.401-3.893-16.24-3.894-23.642 0l-42.64 22.419c-3.583 1.883-7.678 1.585-10.95-.794-3.276-2.38-4.823-6.186-4.138-10.18l8.141-47.477c1.406-8.25-1.327-16.655-7.308-22.481l-34.491-33.621c-2.902-2.829-3.888-6.818-2.635-10.671 1.251-3.85 4.39-6.495 8.399-7.076l47.663-6.926c8.271-1.192 15.423-6.384 19.136-13.895l21.32-43.201c1.788-3.626 5.273-5.792 9.321-5.793h.004c4.052 0 7.541 2.167 9.331 5.79l5.14 10.43c1.83 3.714 6.322 5.245 10.043 3.413 3.715-1.831 5.243-6.327 3.412-10.042l-5.143-10.437c-4.313-8.73-13.043-14.153-22.783-14.153-.003 0-.006 0-.008 0-9.739.003-18.464 5.428-22.77 14.156l-21.317 43.195c-1.521 3.076-4.446 5.203-7.836 5.692l-47.667 6.929c-9.641 1.398-17.499 8.021-20.51 17.284-3.012 9.267-.548 19.248 6.431 26.049z"/></g></svg>